<?xml version="1.0" encoding="utf-8"?>
<!-- Generator: Adobe Illustrator 24.0.1, SVG Export Plug-In . SVG Version: 6.00 Build 0)  -->
<svg version="1.1" id="图层_1" xmlns="http://www.w3.org/2000/svg" xmlns:xlink="http://www.w3.org/1999/xlink" x="0px" y="0px"
	 viewBox="0 0 175 174.8" style="enable-background:new 0 0 175 174.8;" xml:space="preserve">
<style type="text/css">
	.st0{fill:#FFFFFF;}
</style>
<path class="st0" d="M87.5,66.3L76.3,91.7h22.5L87.5,66.3z M94.6,41.7l0.4,0.8l33.3,75c2.1,4.2,0,9.2-4.2,10.8
	c-4.2,1.7-8.8,0-10.8-3.8l-0.4-0.4l-7.1-16.3c-0.4,0.4-0.8,0.4-1.7,0.4H70.8c-0.8,0-1.3,0-2.1-0.4l-7.1,16.3
	c-1.7,4.2-6.3,5.8-10.4,4.6l-0.4-0.4c-4.2-1.7-5.8-6.2-4.6-10.4l0.4-0.4l33.3-75C82.5,36.2,91.3,35.8,94.6,41.7L94.6,41.7z
	 M87.5,16.7c-39.2,0-70.8,31.7-70.8,70.8s31.7,70.8,70.8,70.8s70.8-31.7,70.8-70.8S126.7,16.7,87.5,16.7z M87.5,0
	C135.8,0,175,39.2,175,87.5S135.8,175,87.5,175S0,135.8,0,87.5S39.2,0,87.5,0z"/>
</svg>
