<?xml version="1.0" encoding="utf-8"?>
<!-- Generator: Adobe Illustrator 24.0.1, SVG Export Plug-In . SVG Version: 6.00 Build 0)  -->
<svg version="1.1" id="图层_1" xmlns="http://www.w3.org/2000/svg" xmlns:xlink="http://www.w3.org/1999/xlink" x="0px" y="0px"
	 viewBox="0 0 178.7 155.3" style="enable-background:new 0 0 178.7 155.3;" xml:space="preserve">
<style type="text/css">
	.st0{fill:#2C2C2C;}
</style>
<path class="st0" d="M8.5,60.8h161.7c4.7,0,8.5-3.8,8.5-8.5l0,0c0-2.6-1.2-5-3.2-6.6c-0.5-0.7-1.1-1.2-1.8-1.7L113.2,1.6
	c-3.8-2.7-9.1-1.8-11.8,2c-2.7,3.8-1.8,9.1,2,11.8c0,0,0,0,0,0L144,43.8H8.5c-4.7,0-8.5,3.8-8.5,8.5S3.8,60.8,8.5,60.8z M170.2,94.6
	H8.5C3.8,94.6,0,98.4,0,103l0,0c0,2.6,1.2,5,3.2,6.6c0.5,0.6,1.1,1.2,1.8,1.7l60.4,42.4c3.8,2.7,9.1,1.8,11.8-2.1c0,0,0,0,0,0
	c2.7-3.8,1.8-9.1-2.1-11.8l-40.5-28.4h135.5c4.7,0,8.5-3.8,8.5-8.5S174.9,94.6,170.2,94.6z"/>
</svg>
