<?xml version="1.0" encoding="utf-8"?>
<!-- Generator: Adobe Illustrator 24.0.1, SVG Export Plug-In . SVG Version: 6.00 Build 0)  -->
<svg version="1.1" id="图层_1" xmlns="http://www.w3.org/2000/svg" xmlns:xlink="http://www.w3.org/1999/xlink" x="0px" y="0px"
	 viewBox="0 0 175 170.8" style="enable-background:new 0 0 175 170.8;" xml:space="preserve">
<style type="text/css">
	.st0{fill:#2C2C2C;}
</style>
<path class="st0" d="M133.3,87.4c-2.2-3.2-6.6-4-9.8-1.7l-29,20.3V7c0-3.9-3.1-7-7-7s-7,3.1-7,7v98.6L51.4,85.4
	c-3.2-2.2-7.6-1.5-9.8,1.7s-1.3,7.6,1.9,9.8l40.1,27.8c0.1,0,0.1,0.1,0.2,0.1c2.4,1.7,5.6,1.8,8.1,0l39.7-27.8
	C134.8,94.9,135.5,90.5,133.3,87.4z"/>
<path class="st0" d="M168,95.8c-3.9,0-7,3.1-7,7v37c0,2.5-1.3,4.4-2.9,4.4H17c-1.6,0-2.9-2-2.9-4.4v-37c0-3.9-3.1-7-7-7s-7,3.1-7,7
	v38.5c0,9.4,7.6,17,17,17h141c9.4,0,17-7.6,17-17v-38.5C175,98.9,171.9,95.8,168,95.8z"/>
</svg>
