<?xml version="1.0" standalone="no"?><!DOCTYPE svg PUBLIC "-//W3C//DTD SVG 1.1//EN" "http://www.w3.org/Graphics/SVG/1.1/DTD/svg11.dtd"><svg t="1681749545326" class="icon" viewBox="0 0 1024 1024" version="1.1" xmlns="http://www.w3.org/2000/svg" p-id="6830" xmlns:xlink="http://www.w3.org/1999/xlink" width="200" height="200"><path d="M819.182933 955.716267a34.1504 34.1504 0 0 1 0 68.283733H204.8a34.1504 34.1504 0 0 1 0-68.283733H819.2z m34.133334-955.716267C947.5072 0 1024 71.406933 1024 159.232v568.951467c-0.136533 87.842133-76.629333 159.232-170.683733 159.232H170.666667C76.6464 887.432533 0 816.042667 0 728.200533V159.249067C0 71.406933 76.629333 0 170.683733 0H853.333333z m0 68.283733H170.666667c-56.507733 0-102.4 40.789333-102.4 90.965334v568.9344c0 50.158933 45.892267 90.965333 102.4 90.965333h682.615466c56.5248 0 102.417067-40.8064 102.417067-90.965333V159.249067C955.733333 109.090133 909.824 68.266667 853.333333 68.266667zM586.6496 341.333333a27.7504 27.7504 0 0 1 0 55.5008l-82.363733-0.017066 119.057066 119.074133a27.8016 27.8016 0 0 1 0 39.253333c-5.5296 5.290667-12.544 8.055467-19.677866 8.055467-7.133867 0-14.165333-2.7648-19.677867-8.055467l-136.004267-136.123733v116.548267a27.648 27.648 0 0 1-25.207466 27.511466l-2.525867 0.119467A27.7504 27.7504 0 0 1 392.533333 535.4496V341.333333h194.133334z" fill="#ffffff" p-id="6831"></path></svg>