<?xml version="1.0" encoding="utf-8"?>
<!-- Generator: Adobe Illustrator 24.0.1, SVG Export Plug-In . SVG Version: 6.00 Build 0)  -->
<svg version="1.1" id="图层_1" xmlns="http://www.w3.org/2000/svg" xmlns:xlink="http://www.w3.org/1999/xlink" x="0px" y="0px"
	 viewBox="0 0 244.2 181.7" style="enable-background:new 0 0 244.2 181.7;" xml:space="preserve">
<style type="text/css">
	.st0{fill:#2C2C2C;}
</style>
<path class="st0" d="M105.9,181.7c-0.4,0-0.9,0-1.3,0c-4.4-0.2-8.9-1.6-14.2-3.2c-19.6-5.8-27.2-5.2-33.3-4.7
	c-9.1,0.7-16.3,2.8-22.7,4.7c-10,2.9-18.6,5.4-26.1-1.2c-5-4.4-7.8-11.4-8.3-20.9V33C0,16.8,12.2,3.6,27.2,3.4
	c23.8-4.5,48.2-4.5,71.9,0c7.3,0.2,14.3,3.4,19.2,8.8c5.1,5.6,8,13,8,20.8v123.1c-0.6,9.4-3.3,16.5-8.3,21
	C114.6,180.2,110.6,181.7,105.9,181.7z M62.7,165.1c12.3,0,22,2.9,30.1,5.3c10.2,3,15.3,4.3,19.5,0.5c3.3-3,5.1-8.1,5.6-15.2V33
	c0-5.7-2-11.1-5.8-15.1c-3.4-3.8-8.3-6-13.4-6.1h-0.4l-0.4-0.1c-23-4.4-46.6-4.4-69.5,0L28,11.8h-0.4c-5,0-9.8,2.2-13.4,6.1
	c-3.7,4-5.8,9.4-5.8,15.1v123c0.4,7.1,2.2,12.1,5.4,14.9c1.8,1.6,3.8,2.2,6.6,2.1c3.1-0.2,7-1.3,11.6-2.6c6.4-1.9,14.5-4.2,24.4-5
	C58.6,165.2,60.7,165.1,62.7,165.1z"/>
<path class="st0" d="M223.8,181.7c-0.4,0-0.9,0-1.3,0c-4.4-0.2-8.9-1.6-14.2-3.2c-19.6-5.8-27.2-5.2-33.3-4.7
	c-9.1,0.7-16.3,2.8-22.7,4.7c-10,2.9-18.6,5.4-26.1-1.2c-5-4.4-7.8-11.4-8.3-20.9l8.4-0.5c0.4,7.2,2.2,12.2,5.4,15
	c1.8,1.6,3.8,2.2,6.6,2.1c3.1-0.2,7-1.3,11.6-2.6c6.4-1.8,14.5-4.2,24.4-5c15.3-1.2,27,2.3,36.4,5.1c10.2,3,15.3,4.3,19.5,0.5
	c3.3-3,5.1-8.1,5.6-15.2V33c0-5.7-2-11.1-5.8-15.1c-3.4-3.8-8.3-6-13.4-6.1h-0.4l-0.4-0.1c-23-4.4-46.6-4.4-69.5,0l-0.4,0.1h-0.4
	c-5,0-9.8,2.2-13.4,6.1c-3.7,4-5.8,9.4-5.8,15.1h-8.4c0-16.2,12.2-29.4,27.2-29.6c23.8-4.5,48.2-4.5,71.9,0
	c7.3,0.2,14.3,3.4,19.2,8.8c5.1,5.6,8,13,8,20.8v123.1c-0.6,9.4-3.3,16.5-8.3,21C232.5,180.2,228.5,181.7,223.8,181.7z M32.2,41.8
	h67.2v8.4H32.2V41.8z M32.2,70.6h67.2V79H32.2V70.6z M32.2,99.3H81v8.4H32.2V99.3z"/>
<path class="st0" d="M149.9,41.8h67.2v8.4h-67.2V41.8z M149.9,70.6h67.2V79h-67.2V70.6z M191.8,113h35.5v8.4h-35.5V113z"/>
<path class="st0" d="M205.3,99.5h8.4v35.5h-8.4V99.5z"/>
</svg>
