<?xml version="1.0" encoding="utf-8"?>
<!-- Generator: Adobe Illustrator 24.0.1, SVG Export Plug-In . SVG Version: 6.00 Build 0)  -->
<svg version="1.1" id="图层_1" data-spm-anchor-id="a313x.7781069.0.i2"
	 xmlns="http://www.w3.org/2000/svg" xmlns:xlink="http://www.w3.org/1999/xlink" x="0px" y="0px" viewBox="0 0 174.9 115.2"
	 style="enable-background:new 0 0 174.9 115.2;" xml:space="preserve">
<style type="text/css">
	.st0{fill:#FFFFFF;}
</style>
<path class="st0" d="M170.6,115.2H4.3c-2.4,0-4.3-1.9-4.3-4.3V4.3C0,1.9,1.9,0,4.3,0h166.3c2.4,0,4.3,1.9,4.3,4.3v106.6
	C174.9,113.2,173,115.2,170.6,115.2z M168.5,6.4H6.4v102.4h162.1V6.4z M38.4,38.4H17.1V17.1h21.3V38.4z M53.3,68.2H32V46.9h21.3
	L53.3,68.2z M132.2,98.1H46.9V76.8h85.3V98.1z M121.6,46.9h21.3v21.3h-21.3V46.9z M136.5,17.1h21.3v21.3h-21.3V17.1z M106.6,17.1
	H128v21.3h-21.3V17.1z M113,68.2H91.7V46.9H113L113,68.2z M76.8,17.1h21.3v21.3H76.8V17.1z M83.2,68.2H61.8V46.9h21.3L83.2,68.2
	L83.2,68.2z M46.9,17.1h21.3v21.3H46.9V17.1z"/>
</svg>
