<?xml version="1.0" encoding="utf-8"?>
<!-- Generator: Adobe Illustrator 24.0.1, SVG Export Plug-In . SVG Version: 6.00 Build 0)  -->
<svg version="1.1" id="图层_1" xmlns="http://www.w3.org/2000/svg" xmlns:xlink="http://www.w3.org/1999/xlink" x="0px" y="0px"
	 viewBox="0 0 162.1 134.7" style="enable-background:new 0 0 162.1 134.7;" xml:space="preserve">
<style type="text/css">
	.st0{fill:#FFFFFF;}
</style>
<path class="st0" d="M5.2,127.5H0V23h80.9c0.5-8.5,3.6-16.3,11-23c0.5-0.4,1.1-0.6,1.8-0.6c0.6,0.1,1.2,0.4,1.6,0.9
	c4.8,7,7.6,14.4,7.2,22.6h59.5v2.6h-59.8c0,0.2,0,0.3-0.1,0.5c-1.3,9-6.2,17.1-13.5,22.9l-0.2,0.2h73.5v2.6H86.6
	c-0.2,0.7-0.1,1.5,0.1,2.2c0.2,0.5,0.3,0.9,0.3,1.4c0.2,6.3,2,9.9,10.1,10.8c5.2,0.6,9.1,4.3,11.1,9.1h53.8v2.6h-52.9
	c2.4,9.4-2,19.2-10.7,23.5h63.6v2.6H95.5c-0.2,0.7-0.2,1.4,0.1,2.1c1,4.9,1.6,9.8,2,14.7c0.2,2.3-0.2,4.6-1.2,6.7h65.8v2.6H94.7
	c-1.8,2.2-4.3,3.8-7,4.5c-6.3,1.9-14.6-0.2-18.3-4.5H5.2V127.5z M90,13.8c-2.2,2.7-3.9,5.8-4.8,9.1h13.2c0.1-0.2,0.1-0.3,0.2-0.5
	c0.8-2,1-4.2,0.5-6.3c-0.4-1.7-2-4.1-3.6-4.5C93.5,11.5,91.4,12.3,90,13.8z M97.1,25.6l-12.5,0c-0.8,4.2-0.8,8.7-0.3,13.5
	C89.6,34.9,94.1,30.8,97.1,25.6z M80.9,25.6H5.2v23.5h66c2.4-2.2,5-4.2,7.7-6c3-2.1,3.3-4.1,2.8-7.3C81.1,32.4,80.8,29,80.9,25.6
	L80.9,25.6z M68.5,51.7H5.2v23.5h52.4l0-0.5c-0.1-1.6-0.1-3.1-0.1-4.2C59.6,63.2,63.5,57,68.5,51.7L68.5,51.7z M86.7,65l-2.2-12.7
	c-8.2,5.7-15.1,11.8-19.4,20c-0.5,0.9-1,1.9-1.3,2.9h10.9C76.4,71.3,80.3,68,86.7,65L86.7,65z M99.9,77.9h-9l3.7,22.4
	c7.5-2.5,10.5-8.8,8.4-16.7C102.4,81.1,101.4,79.2,99.9,77.9L99.9,77.9z M57.8,77.9H5.2v23.5h69C66.2,97.9,60.5,90.9,58,81
	C58,80.9,57.9,79.6,57.8,77.9L57.8,77.9z M92.8,100.7l-4-22.8h-7.7c-0.9,0.8-1.6,1.7-2.1,2.8c-2.7,5.7,0.5,9.8,4.9,13.9
	c-5.7-1.6-9.8-6.3-10.4-11.8c-0.2-1.6-0.1-3.3,0.2-4.9H63c-1.1,5.8,0.7,11.9,5.2,16.3C74.4,100.6,84.9,103.4,92.8,100.7L92.8,100.7z
	 M91.9,130.2H77.1c-0.5,0.3-1.1,0.6-1.6,0.9c3.5,2.7,8.2,3.2,12.3,1.5C89.2,131.9,90.6,131.2,91.9,130.2L91.9,130.2z M5.2,127.5
	h62.6c-1.1-3.2-0.7-6.8,1.3-9.6c1.4-1.7,3.5-2.8,5.7-3c2.2-0.2,4.5,0.5,6.1,2c2.9,2.3,3.4,6.5,1.1,9.4c-0.3,0.4-0.7,0.8-1.1,1.1
	h13.3c1-1.6,1.4-3.4,1.3-5.2c-0.3-6.1-1.3-12.1-2-18.3H5.2L5.2,127.5z"/>
</svg>
