<?xml version="1.0" encoding="utf-8"?>
<!-- Generator: Adobe Illustrator 24.0.1, SVG Export Plug-In . SVG Version: 6.00 Build 0)  -->
<svg version="1.1" id="图层_1" xmlns="http://www.w3.org/2000/svg" xmlns:xlink="http://www.w3.org/1999/xlink" x="0px" y="0px"
	 viewBox="0 0 162.1 136" style="enable-background:new 0 0 162.1 136;" xml:space="preserve">
<style type="text/css">
	.st0{fill:#2C2C2C;}
</style>
<path class="st0" d="M5.2,128.1H0V23.5h80.9c0.5-8.5,3.6-16.3,11-23c0.5-0.4,1.1-0.6,1.8-0.6C94.4,0.1,95,0.4,95.3,1
	c4.8,7,7.6,14.4,7.2,22.6h59.5v2.6h-59.8c0,0.2,0,0.3-0.1,0.5c-1.3,9-6.2,17.1-13.5,22.9l-0.2,0.2h73.5v2.6H86.6
	c-0.2,0.7-0.1,1.5,0.1,2.2c0.2,0.5,0.3,0.9,0.3,1.4c0.2,6.3,2,9.9,10.1,10.8c5.2,0.6,9.1,4.3,11.1,9.1h53.8v2.6h-52.9
	c2.4,9.4-2,19.2-10.7,23.5h63.6v2.6H95.5c-0.2,0.7-0.2,1.4,0.1,2.1c1,4.9,1.6,9.8,2,14.7c0.2,2.3-0.2,4.6-1.2,6.7h65.8v2.6H94.7
	c-1.8,2.2-4.3,3.8-7,4.5c-6.3,1.9-14.6-0.2-18.3-4.5H5.2V128.1z M90,14.4c-2.2,2.7-3.9,5.8-4.8,9.1h13.2c0.1-0.2,0.1-0.3,0.2-0.5
	c0.8-2,1-4.2,0.5-6.3c-0.4-1.7-2-4.1-3.6-4.5C93.5,12.1,91.4,12.9,90,14.4z M97.1,26.2l-12.5,0c-0.8,4.2-0.8,8.7-0.3,13.5
	C89.6,35.5,94.1,31.4,97.1,26.2z M80.9,26.2H5.2v23.5h66c2.4-2.2,5-4.2,7.7-6c3-2.1,3.3-4.1,2.8-7.3C81.1,33,80.8,29.6,80.9,26.2
	L80.9,26.2z M68.5,52.3H5.2v23.5h52.4l0-0.5c-0.1-1.6-0.1-3.1-0.1-4.2C59.6,63.7,63.5,57.6,68.5,52.3L68.5,52.3z M86.7,65.6
	l-2.2-12.7c-8.2,5.7-15.1,11.8-19.4,20c-0.5,0.9-1,1.9-1.3,2.9h10.9C76.4,71.9,80.3,68.6,86.7,65.6L86.7,65.6z M99.9,78.4h-9
	l3.7,22.4c7.5-2.5,10.5-8.8,8.4-16.7C102.4,81.7,101.4,79.8,99.9,78.4L99.9,78.4z M57.8,78.4H5.2V102h69
	C66.2,98.5,60.5,91.5,58,81.6C58,81.4,57.9,80.1,57.8,78.4L57.8,78.4z M92.8,101.3l-4-22.8h-7.7c-0.9,0.8-1.6,1.7-2.1,2.8
	c-2.7,5.7,0.5,9.8,4.9,13.9c-5.7-1.6-9.8-6.3-10.4-11.8c-0.2-1.6-0.1-3.3,0.2-4.9H63c-1.1,5.8,0.7,11.9,5.2,16.3
	C74.4,101.1,84.9,104,92.8,101.3L92.8,101.3z M91.9,130.7H77.1c-0.5,0.3-1.1,0.6-1.6,0.9c3.5,2.7,8.2,3.2,12.3,1.5
	C89.2,132.5,90.6,131.7,91.9,130.7L91.9,130.7z M5.2,128.1h62.6c-1.1-3.2-0.7-6.8,1.3-9.6c1.4-1.7,3.5-2.8,5.7-3
	c2.2-0.2,4.5,0.5,6.1,2c2.9,2.3,3.4,6.5,1.1,9.4c-0.3,0.4-0.7,0.8-1.1,1.1h13.3c1-1.6,1.4-3.4,1.3-5.2c-0.3-6.1-1.3-12.1-2-18.3H5.2
	L5.2,128.1z"/>
</svg>
