<?xml version="1.0" encoding="utf-8"?>
<!-- Generator: Adobe Illustrator 24.0.1, SVG Export Plug-In . SVG Version: 6.00 Build 0)  -->
<svg version="1.1" id="图层_1" xmlns="http://www.w3.org/2000/svg" xmlns:xlink="http://www.w3.org/1999/xlink" x="0px" y="0px"
	 viewBox="0 0 147.9 141.7" style="enable-background:new 0 0 147.9 141.7;" xml:space="preserve">
<style type="text/css">
	.st0{fill:#FFFFFF;}
</style>
<path class="st0" d="M54.9,68.7l-24.6,5.6c-2.7,0.6-5.4-1.2-6-3.9c-0.6-2.7,1.2-5.4,3.9-6l24.6-5.6c2.7-0.6,5.3,1,5.9,3.7
	c0,0.1,0,0.1,0,0.2C59.3,65.4,57.6,68.1,54.9,68.7L54.9,68.7z M93,68.7c-2.7-0.6-4.4-3.4-3.8-6.1c0.1-0.6,0.4-1.1,0.7-1.6
	c1.1-1.7,3.2-2.5,5.2-2l24.6,5.6c2.7,0.7,4.3,3.5,3.6,6.2c-0.7,2.5-3.1,4.1-5.7,3.7L93,68.7L93,68.7z M79.9,104.2
	c1.8,0.9,4,0.7,5.6-0.6l7-5.2c1.5-0.9,2-2.8,1.2-4.3c-0.1-0.1-0.1-0.2-0.2-0.3c-1-1.4-3-1.7-4.5-0.7c-0.1,0.1-0.2,0.1-0.3,0.2
	L82.4,98l-4.5-5.6c-1.9-2.3-5.4-2.7-7.7-0.8c-0.3,0.2-0.5,0.5-0.7,0.7l-4.6,5.5l-5.4-4.4c-1.3-1.2-3.3-1-4.5,0.3c0,0,0,0.1-0.1,0.1
	c-1.1,1.4-0.9,3.4,0.4,4.5c0,0,0,0,0.1,0l6.1,5c2.3,1.9,5.7,1.6,7.7-0.7l4.5-5.3l4.3,5.4C78.5,103.3,79.1,103.8,79.9,104.2
	L79.9,104.2z"/>
<path class="st0" d="M45.8,1.7l24.1,21.6H78l24.1-21.6c2.7-2.4,5.3-2.3,7.8,0.4c2.4,2.7,2.3,5.3-0.4,7.7l-15,13.4h28.1
	c7.2,0,14,2.8,18.8,7.7c4.2,4.2,6.5,9.9,6.5,15.8v61.7c0,12.9-11.4,23.4-25.5,23.4h-3.8v2c0,4.3-3.5,7.8-7.8,7.8c0,0,0,0,0,0h0
	c-4.3,0-7.8-3.5-7.8-7.8c0,0,0,0,0,0v-2H45v2c0,4.3-3.5,7.8-7.8,7.8c0,0,0,0,0,0h0c-4.3,0-7.8-3.5-7.8-7.8l0,0v-2h-3.8
	c-14,0-25.5-10.5-25.5-23.4V46.7c0-12.9,11.4-23.4,25.5-23.4h28l-15-13.4c-2.7-2.4-2.9-5-0.4-7.8C40.5-0.6,43.1-0.7,45.8,1.7z
	 M25.5,35.1c-7.6,0-13.7,5.2-13.7,11.7v61.7c0,6.4,6.2,11.7,13.7,11.7h97c7.6,0,13.7-5.2,13.7-11.7V46.6c0-2.8-1.1-5.5-3.1-7.4
	c-2.6-2.6-6.4-4.1-10.5-4.1L25.5,35.1L25.5,35.1z"/>
</svg>
