<?xml version="1.0" encoding="utf-8"?>
<!-- Generator: Adobe Illustrator 24.0.1, SVG Export Plug-In . SVG Version: 6.00 Build 0)  -->
<svg version="1.1" id="图层_1" xmlns="http://www.w3.org/2000/svg" xmlns:xlink="http://www.w3.org/1999/xlink" x="0px" y="0px"
	 viewBox="0 0 180 179.2" style="enable-background:new 0 0 180 179.2;" xml:space="preserve">
<style type="text/css">
	.st0{fill:#FFFFFF;}
</style>
<path class="st0" d="M163,55.7c-21-9.5-23-17.5-25-38c-1-8-6-13.5-11-16.5c-3.5-2-8-1.5-11,1L4,89.7c-2.5,2-4,5-4,8v18.5
	c0,13,10.5,23.5,24,23.5h1v32c0,4,3.5,7.5,7.5,7.5s7.5-3.5,7.5-7.5v-32h34.5v32c0,4,3.5,7.5,7.5,7.5c4,0,7.5-3.5,7.5-7.5v-32H140v32
	c0,4,3.5,7.5,7.5,7.5c4,0,7.5-3.5,7.5-7.5v-32h1c13,0,24-10.5,24-23.5V92.7C180,92.7,180,63.2,163,55.7L163,55.7z M157.5,107.7h-135
	c-4,0-7.5-3.5-7.5-7.5c0-4,3.5-7.5,7.5-7.5h135c4,0,7.5,3.5,7.5,7.5C165,104.2,161.5,107.7,157.5,107.7z"/>
</svg>
